<?xml version="1.0" encoding="UTF-8" standalone="no"?>
<svg
   xmlns:dc="http://purl.org/dc/elements/1.1/"
   xmlns:cc="http://creativecommons.org/ns#"
   xmlns:rdf="http://www.w3.org/1999/02/22-rdf-syntax-ns#"
   xmlns:svg="http://www.w3.org/2000/svg"
   xmlns="http://www.w3.org/2000/svg"
   xmlns:sodipodi="http://sodipodi.sourceforge.net/DTD/sodipodi-0.dtd"
   xmlns:inkscape="http://www.inkscape.org/namespaces/inkscape"
   version="1.1"
   x="0px"
   y="0px"
   viewBox="0 0 148.9196 149.39284"
   enable-background="new 0 0 100 95.139"
   xml:space="preserve"
   id="svg2"
   inkscape:version="0.92.5 (2060ec1f9f, 2020-04-08)"
   sodipodi:docname="hackyhour_jlu.svg"
   width="148.9196"
   height="149.39284"
   inkscape:export-filename="/home/jo/Downloads/hackyhour_jlu.png"
   inkscape:export-xdpi="128.53999"
   inkscape:export-ydpi="128.53999"><metadata
     id="metadata28"><rdf:RDF><cc:Work
         rdf:about=""><dc:format>image/svg+xml</dc:format><dc:type
           rdf:resource="http://purl.org/dc/dcmitype/StillImage" /><dc:title></dc:title></cc:Work></rdf:RDF></metadata><defs
     id="defs26" /><sodipodi:namedview
     pagecolor="#ffffff"
     bordercolor="#666666"
     borderopacity="1"
     objecttolerance="10"
     gridtolerance="10"
     guidetolerance="10"
     inkscape:pageopacity="0"
     inkscape:pageshadow="2"
     inkscape:window-width="1362"
     inkscape:window-height="1041"
     id="namedview24"
     showgrid="false"
     fit-margin-top="1"
     fit-margin-left="1"
     fit-margin-right="1"
     fit-margin-bottom="1"
     inkscape:zoom="1.9253664"
     inkscape:cx="55.896265"
     inkscape:cy="-12.07203"
     inkscape:window-x="2474"
     inkscape:window-y="18"
     inkscape:window-maximized="0"
     inkscape:current-layer="g4850"><inkscape:grid
       type="xygrid"
       id="grid4810"
       originx="-0.22510882"
       originy="-0.55861518" /></sodipodi:namedview><g
     id="g4187"
     transform="translate(-0.22510882,-0.55860943)"><g
       transform="translate(-0.40009308,0.87418365)"
       id="g4172"><g
         id="g4850"><path
           style="opacity:1;fill:#dce5f5;fill-opacity:1;stroke:none;stroke-width:4.73727274;stroke-linecap:round;stroke-miterlimit:4;stroke-dasharray:none;stroke-dashoffset:0;stroke-opacity:1"
           d="M 148.54481,74.380844 A 73.459809,73.696423 0 0 1 75.085011,148.07726 73.459809,73.696423 0 0 1 1.6252019,74.380844 73.459809,73.696423 0 0 1 75.085011,0.68442578 73.459809,73.696423 0 0 1 148.54481,74.380844 Z"
           id="path48"
           inkscape:connector-curvature="0" /><g
           id="g890"
           transform="translate(-3.5784746e-5,2.9440897)"><polygon
             points="31.944,68.75 31.944,77.083 37.5,77.083 62.5,77.083 68.056,77.083 68.056,68.75 "
             id="polygon4"
             transform="matrix(1.1758989,0,0,1.1758989,16.290063,10.076502)"
             style="fill:#77838e;fill-opacity:1" /><path
             d="m 70.185036,76.220813 c 0,-0.90309 -0.730233,-1.633324 -1.633323,-1.633324 -0.720826,0 -1.313479,0.472712 -1.529845,1.121808 l -0.01999,-0.0059 -2.893887,8.682838 H 55.4863 c -0.90309,0 -1.633323,0.730233 -1.633323,1.633323 0,0.903091 0.730233,1.633324 1.633323,1.633324 h 10.97584 l 3.638231,-10.914694 -0.01999,-0.0071 c 0.05762,-0.162274 0.104655,-0.329252 0.104655,-0.51034 z"
             id="path6"
             inkscape:connector-curvature="0"
             style="fill:#52606c;fill-opacity:1;stroke-width:1.17589891" /><path
             style="fill:#0066b3;fill-opacity:1;stroke-width:1.17589891"
             inkscape:connector-curvature="0"
             id="path10"
             d="m 58.752948,74.587492 h -14.06963 l -4.119174,-11.269816 -0.02234,0.0082 C 39.9174,61.339815 38.082997,59.887579 35.88877,59.887579 c -0.787852,0 -1.522789,0.204607 -2.182468,0.535034 l -0.0082,-0.01646 c -11.226306,5.612565 -17.408007,18.18998 -17.408007,35.413371 0,2.705743 2.193051,4.898796 4.899971,4.898796 H 35.88877 v 16.33206 c 0,2.70692 2.193051,4.89997 4.899971,4.89997 2.706919,0 4.898795,-2.19423 4.898795,-4.89997 l -1e-6,-21.230856 c 0,-2.706919 -2.193051,-4.899971 -4.89997,-4.899971 H 26.296963 c 0.595004,-7.042458 2.673994,-14.639941 8.187784,-19.350592 l 5.015208,7.745646 0.01176,-0.0059 c 0.537386,1.070068 1.632148,1.81206 2.91035,1.81206 h 16.33206 c 1.803829,0 3.265471,-1.462818 3.265471,-3.266647 0,-1.803829 -1.462818,-3.266647 -3.266647,-3.266647 z" /><circle
             style="fill:#0066b3;fill-opacity:1;stroke-width:1.17589891"
             id="circle12"
             r="7.3493681"
             cy="57.861725"
             cx="48.334373" /><path
             d="m 94.683713,84.386255 h -8.622866 l -2.893887,-8.682838 -0.01882,0.0059 c -0.217541,-0.649096 -0.809018,-1.121808 -1.53102,-1.121808 -0.90309,0 -1.633324,0.730234 -1.633324,1.633324 0,0.181088 0.04704,0.348066 0.10348,0.51034 l -0.01999,0.0071 3.638231,10.914694 h 10.977016 c 0.903091,0 1.633324,-0.730233 1.633324,-1.633324 0,-0.90309 -0.729058,-1.633323 -1.632148,-1.633323 z"
             id="path14"
             inkscape:connector-curvature="0"
             style="fill:#52606c;fill-opacity:1;stroke-width:1.17589891" /><circle
             cx="101.83681"
             cy="58.171623"
             r="7.3493681"
             id="circle16"
             style="fill:#0066b3;fill-opacity:1;stroke-width:1.17589891" /><path
             d="m 116.47312,60.406149 -0.008,0.01646 c -0.66085,-0.330428 -1.39697,-0.535034 -2.18364,-0.535034 -2.19188,0 -4.02863,1.451059 -4.65186,3.438328 l -0.0235,-0.0082 -4.11917,11.269814 H 91.417066 c -1.803829,0 -3.265471,1.461643 -3.265471,3.265472 0,1.803828 1.461642,3.266647 3.265471,3.266647 h 16.332064 c 1.2782,0 2.37414,-0.741993 2.91152,-1.812061 l 0.0118,0.0059 5.01639,-7.745646 c 5.51261,4.710651 7.5916,12.308134 8.18661,19.350592 h -14.49296 c -2.70692,0 -4.89997,2.193051 -4.89997,4.89997 v 21.230849 c 0,2.70692 2.19305,4.89997 4.89997,4.89997 2.70692,0 4.8988,-2.19305 4.8988,-4.89997 v -16.33088 h 14.69873 c 2.70692,0 4.89997,-2.193054 4.89997,-4.898793 0,-17.22339 -6.1817,-29.800805 -17.40683,-35.41337 z"
             id="path18"
             inkscape:connector-curvature="0"
             style="fill:#0066b3;fill-opacity:1;stroke-width:1.17589891" /><path
             d="m 75.085007,46.543275 c -9.456579,0 -17.148133,-7.69273 -17.148133,-17.148133 0,-9.455403 7.691554,-17.149309 17.148133,-17.149309 9.456578,0 17.148133,7.69273 17.148133,17.148133 0,9.455403 -7.691555,17.149309 -17.148133,17.149309 z m 0,-31.030795 c -7.653926,0 -13.882662,6.226384 -13.882662,13.881486 0,7.655101 6.228736,13.882662 13.882662,13.882662 7.653925,0 13.882662,-6.227561 13.882662,-13.882662 0,-7.655102 -6.228737,-13.881486 -13.882662,-13.881486 z"
             id="path20"
             inkscape:connector-curvature="0"
             style="fill:#0066b3;fill-opacity:1;stroke-width:1.17589891" /><path
             d="m 83.250448,22.861848 c 0,-0.903091 -0.730233,-1.633324 -1.633323,-1.633324 -0.453897,0 -0.860758,0.184616 -1.155909,0.480943 l -3.744062,3.742886 v -5.857152 c 0,-0.903091 -0.730233,-1.633324 -1.633323,-1.633324 -0.90309,0 -1.633324,0.731409 -1.633324,1.633324 v 9.798765 c 0,0.90309 0.730234,1.633323 1.633324,1.633323 0.452721,0 0.860758,-0.184616 1.155908,-0.480942 l 6.529767,-6.527415 c 0.297502,-0.296326 0.480942,-0.705539 0.480942,-1.157084 z"
             id="path22"
             inkscape:connector-curvature="0"
             style="fill:#0066b3;fill-opacity:1;stroke-width:1.17589891" /></g></g></g></g></svg>